<svg width="72" height="80" viewBox="0 0 72 80" fill="none" xmlns="http://www.w3.org/2000/svg">
<g clip-path="url(#clip0_4_175)">
<path d="M10.303 37.661C8.40179 36.8573 7.11125 35.6589 6.49191 33.8211C5.62195 31.2371 6.54952 28.4573 8.96928 27.063C11.7866 25.4412 14.7594 25.3318 17.6458 26.9104C19.6738 28.0194 20.6907 29.8659 20.6331 32.1676C20.5697 34.668 19.2417 36.4021 16.9919 37.4565C16.845 37.5256 16.6952 37.5919 16.4792 37.6898C17.3088 38.0326 18.1182 38.2544 18.824 38.7067C22.7503 41.2186 22.7734 46.5795 18.8672 49.1519C15.6754 51.2519 10.2915 51.0791 7.44829 48.7832C3.85899 45.8882 4.3487 40.654 8.40755 38.4474C8.97504 38.1392 9.57133 37.9001 10.3059 37.6581L10.303 37.661ZM13.4228 49.6474C14.9092 49.6647 16.3178 49.3017 17.6516 48.6939C21.3619 46.9972 21.8861 42.2873 18.6627 39.784C16.0499 37.7532 11.0088 37.6639 8.32401 39.5968C5.33965 41.7487 5.21002 45.7067 8.05323 48.0342C9.61742 49.3161 11.4956 49.5725 13.4257 49.6445L13.4228 49.6474ZM13.2298 26.8326C12.3022 26.7721 11.2623 27.0342 10.2685 27.4577C8.51413 28.2038 7.37915 29.4742 7.18615 31.4186C6.97586 33.5301 7.72771 35.2153 9.62318 36.284C11.6742 37.4392 13.8578 37.5573 16.0557 36.8429C17.9137 36.2379 19.115 34.9244 19.5125 32.9886C19.91 31.0499 19.3598 29.3906 17.7697 28.1635C16.4936 27.1783 14.9985 26.824 13.2327 26.8326H13.2298Z" fill="black"/>
<path d="M67.838 32.13C67.5211 32.13 67.2158 32.13 66.9075 32.13C61.8894 25.8415 54.3392 26.4436 50.0931 30.4967C45.6051 34.7802 45.6569 42.342 50.2026 46.6687C54.4458 50.7074 62.1487 51.0502 66.896 45.0815H67.8207C65.7812 48.9905 59.801 51.2979 55.0133 50.1745C49.5112 48.8839 45.5186 43.9407 45.8269 37.9086C46.089 32.7983 49.4219 28.1317 55.1804 26.8613C60.5845 25.6687 65.6285 28.414 67.838 32.1271V32.13Z" fill="black"/>
<path d="M34.4426 50.0593H33.7858C30.5163 42.3938 27.2467 34.7226 23.957 27.0082H24.9969C28.0245 34.1235 31.055 41.2531 34.1488 48.5239C37.2253 41.2589 40.2472 34.1292 43.2661 27.0111H44.306C41.0134 34.7082 37.7381 42.3593 34.4426 50.0593Z" fill="black"/>
</g>
<defs>
<clipPath id="clip0_4_175">
<rect width="62.807" height="24.8399" fill="white" transform="translate(5.03125 25.7839)"/>
</clipPath>
</defs>
</svg>
