<svg width="41" height="80" viewBox="0 0 41 80" fill="none" xmlns="http://www.w3.org/2000/svg">
<path d="M31.7088 34.9126C33.7657 35.2319 35.1894 36.1902 35.9804 37.4678C36.7713 38.7455 37.2463 40.9814 37.2463 43.856C37.2463 49.6053 35.506 54.3963 32.0254 58.07C28.5446 61.743 24.1148 63.6597 18.7359 63.6597C16.6792 63.6597 14.6225 63.3398 12.5658 62.5417C10.5091 61.743 8.92704 60.6251 7.50314 59.3475C5.9211 57.9104 4.65546 56.1533 3.8644 54.5565C3.23161 52.7995 2.75696 51.0425 2.75696 49.2861C2.75696 47.3696 3.23161 45.7725 4.0226 44.6545C4.81365 43.5366 6.2375 42.8978 7.9778 42.4186C7.6614 41.6201 7.34494 40.9814 7.18674 40.3425C7.02855 39.8634 6.87035 39.3843 6.87035 39.0649C6.87035 38.1066 7.34494 36.9887 8.45239 35.8708C9.55983 34.7528 10.5091 34.2737 11.4583 34.2737C11.9329 34.2737 12.2494 34.2737 12.724 34.4334C13.1986 34.5932 13.6732 34.7528 14.3061 35.2319C12.8822 30.4408 11.4583 26.4482 10.6673 23.7332C9.8763 21.0182 9.55983 19.2614 9.55983 18.1435C9.55983 16.7062 9.8763 15.5882 10.6673 14.7897C11.3001 13.9912 12.4076 13.5121 13.6732 13.5121C15.7299 13.5121 18.4194 18.3033 21.7417 28.0452C22.3746 29.6423 22.691 30.9199 23.0074 31.8782C23.3239 31.2393 23.6402 30.1214 24.1148 28.8438C27.4372 19.2614 30.2851 14.4703 32.4998 14.4703C33.6074 14.4703 34.5567 14.7897 35.3477 15.5882C35.9804 16.3868 36.4547 17.5047 36.4547 18.7824C36.4547 19.7405 36.1387 21.6571 35.3477 24.372C34.3984 27.087 33.2907 30.6005 31.7088 34.9126ZM7.34494 48.9669C7.6614 49.2861 8.13599 49.9245 8.61059 50.7232C10.0345 52.7995 11.4583 53.9174 12.724 53.9174C13.1986 53.9174 13.515 53.7578 13.8314 53.4386C14.1478 53.1187 14.3061 52.7995 14.3061 52.6399C14.3061 52.3207 14.1478 51.6816 13.6732 50.8829C13.1986 50.0848 12.5658 49.1265 11.7747 48.1681C10.8255 47.0501 10.0345 46.0919 9.55983 45.6128C8.92705 45.1337 8.45239 44.8143 8.13599 44.8143C7.34494 44.8143 6.55395 45.2934 5.9211 46.0919C5.28824 46.8904 4.97185 48.0085 4.97185 49.1265C4.97185 50.0848 5.13005 51.0425 5.60471 52.3207C6.0793 53.4386 6.71215 54.7162 7.6614 55.8341C9.08524 57.4309 10.6673 58.868 12.724 59.8264C14.7807 60.7847 16.8374 61.2642 19.3687 61.2642C23.7984 61.2642 27.4372 59.6667 30.4434 56.3129C33.4491 52.9591 34.8727 48.8066 34.8727 43.6963C34.8727 42.0993 34.7144 40.9814 34.5567 40.0231C34.3984 39.0649 33.9234 38.4261 33.4491 38.1066C32.4998 37.3081 30.7595 36.6693 28.07 36.0305C25.3805 35.3917 22.5328 35.0722 19.6851 35.0722C18.8941 35.0722 18.2612 35.2319 17.9448 35.5513C17.6284 35.8708 17.4702 36.3499 17.4702 36.9887C17.4702 38.5857 18.2612 39.7037 20.0015 40.3425C21.7417 40.9814 24.5895 41.4605 28.3864 41.4605H29.8101C30.1268 41.4605 30.4434 41.6201 30.6011 41.7799C30.7595 42.0993 30.9178 42.4187 30.9178 42.8978C30.6011 43.2172 29.8101 43.6963 28.5446 44.1754C27.279 44.6545 26.488 45.1337 25.8551 45.6128C24.4313 46.571 23.3239 47.8489 22.5328 49.2861C21.7417 50.7232 21.2672 52.0008 21.2672 53.2783C21.2672 54.0771 21.4254 54.8758 21.7417 55.9937C22.0582 57.1116 22.2164 57.7501 22.2164 57.9104V58.5488C21.2672 58.5488 20.4761 57.9104 19.8433 56.7924C19.2105 55.6745 19.0523 54.2367 19.0523 52.3207V52.0008C18.8941 52.1604 18.7359 52.3207 18.5776 52.3207C18.4194 52.3207 18.2612 52.4803 17.9448 52.4803H17.312C17.1538 52.4803 16.9956 52.3207 16.6792 52.3207C16.6792 52.6399 16.8374 52.7995 16.8374 53.1187V53.7578C16.8374 54.5565 16.521 55.3546 15.8881 55.9937C15.2553 56.6322 14.4643 56.952 13.515 56.952C12.0912 56.952 10.6673 56.3129 9.08524 54.8758C7.6614 53.4386 6.87035 52.1604 6.87035 50.7232C6.87035 50.404 6.87035 50.2444 7.02855 50.0848C7.02855 49.2861 7.18675 49.1265 7.34494 48.9669ZM17.6284 49.7649C17.9448 49.7649 18.4194 49.6053 18.7359 49.2861C19.0523 48.9669 19.2105 48.4874 19.2105 48.1681C19.2105 47.6889 18.8941 46.7307 18.2612 45.1337C17.6284 43.5366 16.8374 41.9395 15.8881 40.5022C15.2553 39.3843 14.4643 38.4261 13.8314 37.947C13.1986 37.3081 12.5658 37.1484 11.9329 37.1484C11.4583 37.1484 10.9837 37.4678 10.3509 38.1066C9.71803 38.7455 9.55983 39.2246 9.55983 39.8634C9.55983 40.3425 9.8763 41.3008 10.3509 42.4186C10.9837 43.5366 11.6165 44.6545 12.5658 45.9322C13.515 47.2098 14.4643 48.3278 15.4135 49.1265C16.3627 49.4457 16.9956 49.7649 17.6284 49.7649ZM20.9508 33.1558L17.1538 22.4556C16.2045 19.7405 15.5717 17.8241 14.9389 17.0256C14.4643 16.2271 13.9896 15.748 13.3568 15.748C12.8822 15.748 12.5658 15.9076 12.2494 16.2271C11.7747 16.7062 11.6165 17.1853 11.6165 17.8241C11.6165 18.942 12.0912 20.6988 12.8822 23.2541C13.6732 25.8094 14.9389 29.3229 16.521 33.4752C16.6792 33.1558 16.8374 32.9961 17.1538 32.9961C17.4702 32.8364 17.7866 32.8364 18.103 32.8364H18.8941C19.3687 32.9961 20.0015 32.9961 20.9508 33.1558ZM24.7477 43.5366C23.7984 43.5366 22.8492 43.3769 21.8999 43.2172C20.9508 43.0575 20.1597 42.8978 19.3687 42.5784C19.6851 43.3769 20.0015 44.0157 20.3179 44.8143C20.6343 45.6128 20.7925 46.2516 20.9508 47.0501C21.4254 46.4113 22.0582 45.7725 22.691 45.1337C23.4821 44.4948 24.1148 44.0158 24.7477 43.5366ZM29.3357 34.2737C30.9178 30.1214 32.0254 26.6079 32.9747 23.8929C33.7657 21.1779 34.2401 19.5809 34.2401 18.942C34.2401 18.3033 34.0817 17.8241 33.7657 17.345C33.4491 17.0256 33.1324 16.8659 32.6581 16.8659C32.0254 16.8659 31.3921 17.345 30.7595 18.4629C30.1268 19.5809 29.3357 21.1779 28.5446 23.5735L25.0641 33.4752L29.3357 34.2737Z" fill="black"/>
</svg>
