<svg width="89" height="80" viewBox="0 0 89 80" fill="none" xmlns="http://www.w3.org/2000/svg">
<path d="M9.89883 35.0076C12.1053 35.0076 13.6448 33.7423 13.8567 31.7354H12.0243C11.8248 32.8012 11.0208 33.4556 9.90507 33.4556C8.46533 33.4556 7.56158 32.2714 7.56158 30.3517C7.56158 28.457 8.47775 27.2665 9.89883 27.2665C10.9958 27.2665 11.8435 27.9895 12.018 29.0927H13.8505C13.7071 27.0795 12.0617 25.7083 9.89883 25.7083C7.29352 25.7083 5.64185 27.4597 5.64185 30.358C5.64185 33.2624 7.2811 35.0076 9.89883 35.0076ZM20.3453 34.858H22.346L19.2172 25.8641H17.0045L13.8819 34.858H15.814L16.4997 32.6765H19.6597L20.3453 34.858ZM18.0578 27.5844H18.1015L19.2546 31.268H16.9048L18.0578 27.5844ZM24.8955 34.858V31.3178H28.5542V29.8281H24.8955V27.4161H28.9032V25.8641H23.0132V34.858H24.8955ZM31.6458 34.858V31.3178H35.3045V29.8281H31.6458V27.4161H35.6535V25.8641H29.7636V34.858H31.6458ZM42.4725 33.2998H38.3963V31.0311H42.2418V29.5851H38.3963V27.4161H42.4725V25.8641H36.5139V34.858H42.4725V33.2998ZM45.4583 34.858V25.8641H43.576V34.858H45.4583ZM48.5001 34.858V28.968H48.5562L52.7633 34.858H54.3216V25.8641H52.5202V31.7229H52.4704L48.2695 25.8641H46.6989V34.858H48.5001ZM61.4581 34.858H63.459L60.3305 25.8641H58.1178L54.995 34.858H56.9271L57.6126 32.6765H60.7726L61.4581 34.858ZM59.1707 27.5844H59.2145L60.3678 31.268H58.018L59.1707 27.5844ZM66.9371 34.858V27.4161H69.5424V25.8641H62.4557V27.4161H65.0552V34.858H66.9371ZM76.2867 33.2998H72.2107V31.0311H76.0563V29.5851H72.2107V27.4161H76.2867V25.8641H70.3282V34.858H76.2867V33.2998ZM77.3905 25.8641V34.858H80.8247C83.5233 34.858 85.1124 33.1814 85.1124 30.3268C85.1124 27.4722 83.5233 25.8641 80.8247 25.8641H77.3905ZM79.2724 27.4161H80.6001C82.258 27.4161 83.1932 28.4507 83.1932 30.333C83.1932 32.2776 82.2831 33.2998 80.6001 33.2998H79.2724V27.4161ZM9.89883 50.4541C12.1053 50.4541 13.6448 49.1888 13.8567 47.1819H12.0243C11.8248 48.2479 11.0208 48.9024 9.90507 48.9024C8.46533 48.9024 7.56158 47.7178 7.56158 45.7982C7.56158 43.9034 8.47775 42.7129 9.89883 42.7129C10.9958 42.7129 11.8435 43.436 12.018 44.5392H13.8505C13.7071 42.526 12.0617 41.1547 9.89883 41.1547C7.29352 41.1547 5.64185 42.9061 5.64185 45.8044C5.64185 48.7087 7.2811 50.4541 9.89883 50.4541ZM20.3453 50.3048H22.346L19.2172 41.3105H17.0045L13.8819 50.3048H15.814L16.4997 48.123H19.6597L20.3453 50.3048ZM18.0578 43.0308H18.1015L19.2546 46.7144H16.9048L18.0578 43.0308ZM23.0132 41.3105V50.3048H24.8955V47.4686H26.5784C28.4731 47.4686 29.7882 46.2345 29.7882 44.3896C29.7882 42.5384 28.5168 41.3105 26.6718 41.3105H23.0132ZM24.8955 42.8002H26.1732C27.2515 42.8002 27.8748 43.3736 27.8748 44.3958C27.8748 45.4242 27.2453 45.9976 26.167 45.9976H24.8955V42.8002ZM32.5309 50.3048V41.3105H30.6486V50.3048H32.5309ZM37.8041 50.3048V42.8625H40.4094V41.3105H33.3227V42.8625H35.9218V50.3048H37.8041ZM45.8634 50.3048H47.8641L44.7352 41.3105H42.5226L39.4 50.3048H41.3321L42.0177 48.123H45.1778L45.8634 50.3048ZM43.576 43.0308H43.6195L44.7726 46.7144H42.4229L43.576 43.0308ZM54.3465 48.746H50.4136V41.3105H48.5313V50.3048H54.3465V48.746Z" fill="black"/>
</svg>
