<svg width="58" height="80" viewBox="0 0 58 80" fill="none" xmlns="http://www.w3.org/2000/svg">
<path d="M4.22241 42.1264C4.22241 40.6921 4.22241 39.2546 4.22241 37.8203C4.41297 36.8107 4.59016 35.7977 4.79744 34.7914C7.60238 21.2448 21.1122 12.3118 34.9999 15.5781C48.259 18.6939 56.744 31.9029 53.7217 45.1586C51.4484 55.128 45.1899 61.4333 35.391 64.2349C34.1005 64.6027 32.7532 64.7698 31.4327 65.0272H27.1266C26.0902 64.83 25.0438 64.6795 24.0208 64.4321C14.4325 62.1153 8.1607 56.2246 5.22203 46.8235C4.74729 45.3024 4.55005 43.6943 4.22576 42.1264H4.22241ZM19.4172 45.2121C19.7348 45.3826 19.8151 45.4328 19.8987 45.4696C25.1441 47.7062 30.5701 48.6021 36.2636 47.8399C41.0878 47.1913 45.5242 45.5866 49.496 42.7783C49.9272 42.4741 50.3384 41.8188 50.3652 41.3039C50.6728 35.45 48.8474 30.3149 45.0361 25.8584C44.441 25.163 43.973 25.1028 43.184 25.5408C36.3806 29.3219 30.1689 33.8954 24.6727 39.4083C22.8674 41.2204 21.2259 43.1995 19.4105 45.2054L19.4172 45.2121ZM40.7869 22.2477C36.0563 19.3124 31.0047 18.1857 25.5018 19.1887C16.9901 20.7433 10.0964 27.4899 8.57525 35.8579C8.48833 36.346 8.69561 37.0213 9.00652 37.4225C10.7617 39.6758 12.9214 41.4945 15.3151 43.0491C15.7932 43.36 16.0172 43.3734 16.405 42.8786C20.9451 37.1116 26.2474 32.1235 32.2317 27.8877C34.9798 25.942 37.8516 24.1701 40.7802 22.2477H40.7869ZM17.0502 48.4951C16.064 50.1367 15.1647 51.7046 14.1918 53.2258C13.6837 54.0181 13.8241 54.5697 14.5328 55.1046C15.051 55.4958 15.509 55.9672 16.0172 56.3717C20.905 60.2598 26.4547 61.791 32.6228 60.8482C36.5946 60.2398 40.0982 58.5348 43.1405 55.897C45.6346 53.7373 47.48 51.1196 48.834 47.9034C38.2595 53.1823 27.7518 53.3929 17.0502 48.4918V48.4951ZM11.1127 50.6749C11.9786 49.2741 12.7877 47.9703 13.5767 46.6932C11.8181 45.3358 10.1031 44.0153 8.30111 42.6245C8.74241 45.513 9.57152 48.1608 11.1161 50.6749H11.1127Z" fill="black"/>
</svg>
