<svg aria-label="Next.js Conf 2023" data-logo="true" fill="none" height="22" viewBox="0 0 141 22" width="141" xmlns="http://www.w3.org/2000/svg"><path d="M68.8921 0.342378H86.8799V3.74433H79.7442V21.6416H76.1764V3.74433H68.8921V0.342378Z" fill="#000"></path><path d="M39.3088 0.342378V3.74433H24.8903V9.21704H36.4858V12.619H24.8903V18.2396H39.3088V21.6416H21.3225V3.74433H21.321V0.342378H39.3088Z" fill="#000"></path><path d="M48.2908 0.351262H43.6214L60.3456 21.6505H65.0284L56.6654 11.0082L65.015 0.367512L60.3456 0.374905L54.3276 8.03333L48.2908 0.351262Z" fill="#000"></path><path d="M53.0821 15.5654L50.7437 12.5865L43.608 21.6667H48.2908L53.0821 15.5654Z" fill="#000"></path><path clip-rule="evenodd" d="M21.4475 21.6416L4.701 0.333496H0.241211V21.6327H3.80904V4.8862L16.9654 21.6416H21.4475Z" fill="#000" fill-rule="evenodd"></path><path d="M87.6816 21.5115C87.4206 21.5115 87.1981 21.4188 87.012 21.2333C86.8259 21.0478 86.734 20.8232 86.7364 20.5571C86.734 20.2984 86.8259 20.0763 87.012 19.8908C87.1981 19.7053 87.4206 19.6125 87.6816 19.6125C87.9331 19.6125 88.153 19.7053 88.3392 19.8908C88.5277 20.0763 88.622 20.2984 88.6244 20.5571C88.622 20.7329 88.5785 20.894 88.4914 21.038C88.402 21.1844 88.2884 21.2992 88.1458 21.3822C88.0056 21.4676 87.8509 21.5115 87.6816 21.5115Z" fill="#000"></path><path d="M93.7713 12.5388H95.3523V18.7802C95.3499 19.3538 95.229 19.8444 94.9921 20.2569C94.7527 20.6694 94.4215 20.9843 93.9961 21.2064C93.573 21.4261 93.0774 21.5384 92.5142 21.5384C91.9992 21.5384 91.5375 21.4432 91.1266 21.2577C90.7156 21.0722 90.3892 20.7939 90.1499 20.4278C89.9081 20.0616 89.7897 19.6052 89.7897 19.0584H91.3731C91.3756 19.2976 91.4287 19.5051 91.5303 19.6784C91.6318 19.8517 91.772 19.9835 91.9509 20.0763C92.1322 20.169 92.3401 20.2154 92.5746 20.2154C92.8284 20.2154 93.046 20.1617 93.2225 20.0519C93.399 19.9445 93.5343 19.7834 93.6286 19.5686C93.7205 19.3562 93.7688 19.0926 93.7713 18.7802V12.5388Z" fill="#000"></path><path d="M101.858 14.9797C101.819 14.6013 101.65 14.306 101.355 14.0961C101.057 13.8837 100.673 13.7788 100.202 13.7788C99.8705 13.7788 99.5852 13.83 99.3483 13.9301C99.1114 14.0326 98.9277 14.1693 98.8019 14.3426C98.6762 14.5159 98.6134 14.7136 98.6085 14.9358C98.6085 15.1213 98.6521 15.2824 98.7367 15.4166C98.8213 15.5533 98.9349 15.668 99.0824 15.7608C99.2274 15.856 99.3894 15.9341 99.5658 15.9975C99.7447 16.061 99.9236 16.1147 100.103 16.1587L100.927 16.3661C101.258 16.4442 101.58 16.5492 101.887 16.6834C102.194 16.8153 102.472 16.9837 102.716 17.1863C102.96 17.3889 103.153 17.6329 103.296 17.9185C103.439 18.2041 103.511 18.5385 103.511 18.9242C103.511 19.4441 103.381 19.9005 103.117 20.2959C102.854 20.6889 102.474 20.9965 101.976 21.2186C101.48 21.4383 100.881 21.5506 100.175 21.5506C99.4933 21.5506 98.8987 21.4432 98.3983 21.2284C97.8954 21.016 97.5038 20.7036 97.2209 20.2935C96.9381 19.8834 96.7858 19.383 96.764 18.7948H98.3306C98.3523 19.1023 98.449 19.3587 98.6134 19.5661C98.7802 19.7712 98.9977 19.9225 99.2637 20.025C99.532 20.1251 99.8318 20.1764 100.163 20.1764C100.509 20.1764 100.813 20.1226 101.077 20.0177C101.338 19.9127 101.543 19.7663 101.691 19.5759C101.841 19.3879 101.916 19.1658 101.918 18.912C101.916 18.6801 101.848 18.4872 101.717 18.3359C101.584 18.1846 101.401 18.0577 101.166 17.9551C100.929 17.8526 100.654 17.7599 100.339 17.6793L99.3386 17.4206C98.6158 17.2326 98.0428 16.9471 97.6246 16.5638C97.204 16.1806 96.9961 15.6729 96.9961 15.0358C96.9961 14.5135 97.1363 14.0546 97.4192 13.6616C97.6996 13.2686 98.084 12.9635 98.5699 12.7463C99.0582 12.5266 99.6094 12.4192 100.223 12.4192C100.847 12.4192 101.393 12.5266 101.865 12.7463C102.336 12.9635 102.706 13.2662 102.974 13.6519C103.243 14.0375 103.383 14.4793 103.39 14.9797H101.858Z" fill="#000"></path><path d="M112.833 1.22241L140.092 1.22241" stroke="#000" stroke-width="1.77777"></path><path d="M112.833 20.7778H140.092" stroke="#000" stroke-width="1.77777"></path><path d="M119.307 12.3717C118.996 14.2864 117.847 15.4352 116.208 15.4352C114.078 15.4352 112.833 13.7239 112.833 11.0074C112.833 8.26695 114.078 6.55566 116.208 6.55566C117.763 6.55566 118.9 7.64467 119.259 9.47563L117.752 9.5594C117.5 8.44646 116.95 7.87204 116.172 7.87204C114.975 7.87204 114.329 8.97301 114.329 11.0074C114.329 13.0298 114.975 14.1188 116.172 14.1188C117.022 14.1188 117.572 13.4966 117.799 12.2879L119.307 12.3717Z" fill="#000"></path><path d="M123.096 15.4352C121.062 15.4352 119.901 13.6761 119.901 11.0074C119.901 8.32679 121.062 6.55566 123.096 6.55566C125.131 6.55566 126.291 8.32679 126.291 11.0074C126.291 13.6761 125.131 15.4352 123.096 15.4352ZM121.397 11.0074C121.397 12.97 121.995 14.1188 123.096 14.1188C124.197 14.1188 124.795 12.97 124.795 11.0074C124.795 9.03285 124.197 7.87204 123.096 7.87204C121.995 7.87204 121.397 9.03285 121.397 11.0074Z" fill="#000"></path><path d="M127.34 6.74714H129.039L131.54 12.8384V6.74714H132.964V15.2438H131.181L128.764 9.40382V15.2438H127.34V6.74714Z" fill="#000"></path><path d="M134.671 6.74714H140.092V8.06351H136.143V10.421H139.877V11.7254H136.143V15.2438H134.671V6.74714Z" fill="#000"></path></svg>