<svg width="60" height="80" viewBox="0 0 60 80" fill="none" xmlns="http://www.w3.org/2000/svg">
<path fill-rule="evenodd" clip-rule="evenodd" d="M56.5909 46.27C56.5909 52.551 51.5071 57.6708 45.259 57.6708C39.012 57.6708 33.9281 52.551 33.9281 46.27C33.9281 43.832 34.6934 41.5745 35.9877 39.7121C34.1504 41.0282 31.9014 41.7842 29.4832 41.7842C27.6952 41.7842 26.1495 42.8525 25.4361 44.3885C25.1747 44.9589 25.0244 45.5979 25.0244 46.27C25.0244 48.7421 27.0208 50.7367 29.4782 50.7418H29.4832C30.4152 50.7418 31.2814 50.4496 32.0037 49.9566C32.6288 52.2485 33.8309 54.3054 35.4447 55.9543C33.7147 57.042 31.6741 57.6657 29.4933 57.6708H29.4832C26.4109 57.6708 23.6328 56.4422 21.5821 54.4425C19.5427 56.4422 16.7558 57.6708 13.6924 57.6708C7.44545 57.6708 2.36157 52.551 2.36157 46.27H9.23859C9.23859 48.7421 11.235 50.7418 13.6924 50.7418C16.1509 50.7418 18.1373 48.7421 18.1373 46.27C18.1373 43.799 16.1509 41.7842 13.6924 41.7842C7.44545 41.7842 2.36157 36.6783 2.36157 30.3834C2.36157 25.4973 5.43259 21.3189 9.73739 19.7004C10.9686 19.2367 12.3021 18.9826 13.6924 18.9826C15.8833 18.9826 17.9239 19.6077 19.6589 20.699C18.0451 22.3479 16.8392 24.4048 16.2129 26.6979C15.4905 26.2049 14.623 25.9127 13.6924 25.9127H13.6873C11.23 25.9166 9.23859 27.9264 9.23859 30.3834C9.23859 32.8556 11.235 34.8692 13.6924 34.8692C16.5803 34.8692 19.222 35.9618 21.2247 37.762L21.2298 37.767C21.351 37.8738 21.4672 37.9855 21.5821 38.0973C23.6328 36.0977 26.4109 34.8692 29.4832 34.8692C31.9267 34.8692 33.9281 32.8556 33.9281 30.3834C33.9281 27.9264 31.9267 25.9127 29.4832 25.9127C27.0259 25.9127 25.0244 27.9264 25.0244 30.3834H18.1373C18.1373 24.0986 23.2212 18.9826 29.4832 18.9826C32.5467 18.9826 35.3235 20.2111 37.3692 22.212C39.4099 20.2111 42.1967 18.9826 45.259 18.9826C51.5071 18.9826 56.5909 24.0986 56.5909 30.3834C56.5909 33.4756 55.37 36.2692 53.3838 38.3324C55.37 40.379 56.5909 43.1879 56.5909 46.27ZM45.4274 25.7588C42.9109 25.7588 40.8733 27.6034 40.8733 29.8554C40.8733 32.1201 42.9109 33.9647 45.4274 33.9647C47.9452 33.9647 49.9912 32.1201 49.9912 29.8554C49.9912 27.6034 47.9452 25.7588 45.4274 25.7588ZM40.8733 46.7366C40.8733 44.2215 42.9109 42.1706 45.4274 42.1706C47.9452 42.1706 49.9912 44.2215 49.9912 46.7366C49.9912 49.2546 47.9452 51.2883 45.4274 51.2883C42.9109 51.2883 40.8733 49.2546 40.8733 46.7366Z" fill="black"/>
</svg>
