<svg width="89" height="80" viewBox="0 0 89 80" fill="none" xmlns="http://www.w3.org/2000/svg">
<path fill-rule="evenodd" clip-rule="evenodd" d="M55.1808 36.6676C54.5464 36.6676 54.0981 36.8841 53.8022 37.3355C53.5064 37.79 53.3539 38.4365 53.3539 39.26C53.3539 40.0835 53.5033 40.7362 53.8022 41.1937C54.0981 41.6481 54.5494 41.8677 55.1808 41.8677C55.8121 41.8677 56.2665 41.645 56.5654 41.1906C56.8674 40.7301 57.0199 40.0804 57.0199 39.257C57.0199 38.4335 56.8674 37.7869 56.5654 37.3355C56.2665 36.8872 55.8151 36.6676 55.1808 36.6676Z" fill="black"/>
<path fill-rule="evenodd" clip-rule="evenodd" d="M68.0971 19.8687C65.6053 19.8687 63.144 20.3933 60.8688 21.4089C58.3069 16.8646 53.5491 13.8147 48.0592 13.8147C43.9419 13.8147 40.2149 15.5409 37.5371 18.3285V18.3438C34.6122 14.4857 29.9459 12 24.7305 12C15.8248 12 8.59657 19.1978 8.59657 28.1035C8.59657 30.3055 9.0449 32.4862 9.92327 34.5083C5.78761 36.9482 3 41.462 3 46.6469C3 54.3631 9.1913 60.6459 16.8465 60.6459C17.8042 60.6459 18.7588 60.5483 19.6952 60.3501C21.7996 66.0534 27.2589 70.1098 33.6942 70.1098C40.1295 70.1098 45.1466 66.3584 47.4188 61.021C49.206 61.8933 51.1671 62.3417 53.1526 62.3386C58.0324 62.3386 62.3175 59.6242 64.5592 55.6288C65.7121 55.8576 66.8893 55.9796 68.0971 55.9796C77.9788 55.9796 86 47.8973 86 37.9242C86 27.951 77.9788 19.8687 68.0971 19.8687V19.8687ZM20.8419 40.8094C20.8419 42.2672 19.7836 43.173 18.0818 43.173C17.2461 43.173 16.447 43.0419 15.5991 42.5936C15.4405 42.5021 15.2819 42.4197 15.1264 42.3069C15.1112 42.2825 15.038 42.255 15.0898 42.1178L15.4253 41.1814C15.4771 41.0229 15.5991 41.0747 15.6479 41.1052C15.7394 41.1601 15.8096 41.2119 15.9285 41.2821C16.9197 41.9073 17.8347 41.9134 18.1214 41.9134C18.8595 41.9134 19.32 41.52 19.32 40.9924V40.9649C19.32 40.3915 18.6124 40.1719 17.7951 39.9218L17.6151 39.8669C16.4928 39.5467 15.2911 39.0831 15.2911 37.6619V37.6314C15.2911 36.2833 16.3799 35.3409 17.9384 35.3409H18.1092C19.0242 35.3409 19.9086 35.6062 20.5491 35.9966C20.6071 36.0302 20.665 36.1003 20.6315 36.1888C20.601 36.2742 20.3173 37.0366 20.2838 37.122C20.2228 37.2806 20.0581 37.1739 20.0581 37.1739C19.5 36.8658 18.6277 36.6218 17.8957 36.6218C17.2369 36.6218 16.8099 36.9726 16.8099 37.4484V37.4758C16.8099 38.0309 17.5389 38.2688 18.3837 38.5433L18.5301 38.589C19.6464 38.9398 20.8419 39.4308 20.8419 40.7789V40.8063V40.8094ZM27.8231 42.685C27.8231 42.685 27.6462 42.7338 27.4846 42.7704C27.082 42.8589 26.6794 42.9351 26.2738 43.0053C25.798 43.0846 25.307 43.1273 24.8129 43.1273C24.3188 43.1273 23.9162 43.0846 23.538 42.9961C23.1568 42.9107 22.8274 42.7674 22.559 42.5722C22.2906 42.377 22.0741 42.1178 21.9307 41.8189C21.7843 41.5169 21.7111 41.1479 21.7111 40.7209C21.7111 40.2939 21.7965 39.9279 21.9673 39.6107C22.1351 39.2966 22.376 39.0252 22.6658 38.8178C22.9555 38.6104 23.294 38.4518 23.6692 38.3511C24.0413 38.2505 24.4408 38.1986 24.8525 38.1986C25.1545 38.1986 25.4076 38.2047 25.6028 38.22L25.6089 38.2322C25.6089 38.2322 25.9902 38.2657 26.4019 38.3267V38.1224C26.4019 37.4819 26.2677 37.1769 26.0054 36.9756C25.737 36.7713 25.3344 36.6645 24.8159 36.6645C24.8159 36.6645 23.6448 36.6493 22.7207 37.1525C22.678 37.1769 22.6414 37.1922 22.6414 37.1922C22.6414 37.1922 22.5255 37.2318 22.4828 37.1129L22.1412 36.1979C22.0893 36.0668 22.1839 36.0058 22.1839 36.0058C22.617 35.6672 23.6661 35.4629 23.6661 35.4629C24.0138 35.3927 24.5963 35.3439 24.9562 35.3439C25.917 35.3439 26.6581 35.5666 27.1644 36.0088C27.6737 36.4511 27.9299 37.1678 27.9299 38.1315V42.5234C27.9299 42.5234 27.9421 42.6515 27.8231 42.682V42.685ZM31.0499 42.8406C31.0499 42.9199 30.992 42.987 30.9127 42.987H29.6378C29.5555 42.987 29.5006 42.9199 29.5006 42.8406V32.5716C29.5006 32.4923 29.5585 32.4252 29.6378 32.4252H30.9127C30.992 32.4252 31.0499 32.4892 31.0499 32.5716V42.8406V42.8406ZM39.0224 39.5315C39.0102 39.6565 38.8821 39.6565 38.8821 39.6565H34.0632C34.0907 40.3854 34.2676 40.9009 34.6214 41.2546C34.9691 41.5993 35.5241 41.8219 36.2683 41.8219C37.412 41.825 37.9 41.5932 38.2446 41.4651C38.2446 41.4651 38.3788 41.4163 38.4276 41.5505L38.7418 42.4319C38.8058 42.5814 38.754 42.6332 38.7021 42.6606C38.4032 42.8284 37.6713 43.1395 36.2805 43.1425C35.6034 43.1425 35.0179 43.048 34.5329 42.8589C34.0449 42.6698 33.6393 42.4014 33.3221 42.0568C33.008 41.7152 32.7731 41.3034 32.6267 40.8338C32.4803 40.3671 32.4071 39.8517 32.4071 39.2966C32.4071 38.7415 32.4773 38.2352 32.6176 37.7625C32.7579 37.2837 32.9775 36.8658 33.2703 36.5121C33.5631 36.1583 33.9351 35.8746 34.3774 35.6672C34.8196 35.4598 35.3655 35.3592 35.9664 35.3592C36.4391 35.3592 36.9088 35.4537 37.3449 35.6398C37.6469 35.7679 37.9488 36.0027 38.2599 36.3352C38.4551 36.5456 38.754 37.0061 38.876 37.4606H38.879C39.1871 38.5433 39.0285 39.4796 39.0224 39.5315V39.5315ZM42.9964 43.17C42.1607 43.17 41.3616 43.0388 40.5138 42.5905C40.3552 42.499 40.1966 42.4167 40.041 42.3038C40.0227 42.2794 39.9526 42.252 40.0044 42.1147H40.0014L40.3369 41.1784C40.3857 41.0259 40.529 41.0808 40.5595 41.1022C40.651 41.1601 40.7212 41.2089 40.8401 41.279C41.8283 41.9043 42.7463 41.9104 43.033 41.9104C43.7711 41.9104 44.2316 41.5169 44.2316 40.9893V40.9619C44.2316 40.3885 43.5271 40.1689 42.7067 39.9188L42.5267 39.8639C41.4043 39.5437 40.2027 39.0801 40.2027 37.6588V37.6314C40.2027 36.2833 41.2915 35.3409 42.85 35.3409H43.0208C43.9358 35.3409 44.8202 35.6062 45.4607 35.9966C45.5187 36.0302 45.5766 36.1003 45.5431 36.1888C45.5156 36.2742 45.232 37.0366 45.1984 37.122C45.1374 37.2806 44.9727 37.1739 44.9727 37.1739C44.4115 36.8658 43.5423 36.6218 42.8104 36.6218C42.1516 36.6218 41.7246 36.9726 41.7246 37.4484V37.4758C41.7246 38.0309 42.4535 38.2688 43.2983 38.5433L43.4447 38.589C44.564 38.9398 45.7566 39.4308 45.7566 40.7789V40.8063C45.7566 42.2642 44.6982 43.17 42.9964 43.17V43.17ZM51.4172 36.6645C51.3897 36.8109 51.2555 36.8048 51.2555 36.8048H49.6696L48.5869 42.9382C48.474 43.5726 48.3307 44.1155 48.1629 44.5546C47.9952 44.9969 47.8183 45.3202 47.5377 45.6313C47.2785 45.9179 46.9857 46.1314 46.6502 46.2504C46.3147 46.3724 45.9121 46.4334 45.4699 46.4334C45.2594 46.4334 45.0337 46.4303 44.7653 46.3663C44.5732 46.3205 44.4664 46.287 44.3262 46.2382C44.2652 46.2168 44.2194 46.1406 44.253 46.046C44.2865 45.9484 44.5701 45.1707 44.6098 45.067C44.6586 44.942 44.7836 44.9908 44.7836 44.9908C44.869 45.0274 44.93 45.0518 45.0429 45.0762C45.1588 45.1006 45.3113 45.1189 45.4302 45.1189C45.6407 45.1189 45.8298 45.0945 45.9975 45.0365C46.1988 44.9694 46.3147 44.8535 46.4367 44.698C46.5648 44.5363 46.6654 44.3106 46.7722 44.0148C46.8789 43.7129 46.9765 43.3133 47.0619 42.8284L48.1416 36.8079H47.0772C46.9491 36.8079 46.9094 36.7499 46.9216 36.6523L47.1016 35.652C47.129 35.5056 47.2632 35.5117 47.2632 35.5117H48.3551L48.413 35.1853C48.5747 34.2185 48.901 33.4866 49.3798 33.0047C49.8617 32.5197 50.5479 32.2727 51.4172 32.2727C51.6368 32.2727 51.8564 32.2879 52.0698 32.3245C52.2315 32.352 52.3901 32.3916 52.5456 32.4374C52.5792 32.4496 52.6707 32.4953 52.6341 32.6051L52.265 33.6146C52.2345 33.6909 52.2132 33.7366 52.0577 33.6878C52.018 33.6756 51.9601 33.6604 51.8106 33.6268C51.7008 33.6055 51.5605 33.5872 51.4141 33.5872C51.2403 33.5872 51.0664 33.6085 50.8987 33.6604C50.7462 33.7092 50.6089 33.7976 50.4961 33.9105C50.3772 34.0325 50.2338 34.2063 50.1576 34.4229C49.9807 34.9322 49.9105 35.472 49.9044 35.5086H51.4416C51.5697 35.5086 51.6124 35.5666 51.5971 35.6642L51.4172 36.6645V36.6645ZM58.438 40.788C58.2977 41.2607 58.0812 41.6755 57.7915 42.0232C57.5017 42.3709 57.1327 42.6485 56.6996 42.8467C56.2665 43.0449 55.7541 43.1456 55.1777 43.1456C54.6013 43.1456 54.0889 43.0449 53.6527 42.8467C53.2197 42.6485 52.8506 42.3709 52.5609 42.0232C52.2711 41.6755 52.0546 41.2607 51.9143 40.788C51.774 40.3183 51.7039 39.8059 51.7039 39.26C51.7039 38.7141 51.774 38.2017 51.9143 37.732C52.0546 37.2593 52.2711 36.8445 52.5609 36.4968C52.8506 36.1491 53.2197 35.8685 53.6527 35.6672C54.0889 35.4659 54.5982 35.3622 55.1777 35.3622C55.7572 35.3622 56.2696 35.4629 56.7026 35.6672C57.1388 35.8685 57.5048 36.1491 57.7945 36.4968C58.0843 36.8445 58.3008 37.2593 58.4411 37.732C58.5783 38.2017 58.6485 38.7171 58.6485 39.26C58.6485 39.8029 58.5783 40.3183 58.4411 40.788H58.438ZM64.3335 35.7404V35.7191C64.2908 35.8502 64.056 36.509 63.9736 36.7286C63.9431 36.8109 63.8913 36.8689 63.7967 36.8597C63.7967 36.8597 63.5192 36.7957 63.2691 36.7957C63.0495 36.7957 62.833 36.8262 62.6225 36.8872C62.3999 36.9573 62.1955 37.0793 62.0278 37.244C61.8539 37.4148 61.7106 37.6527 61.6069 37.9516C61.5001 38.2535 61.4483 38.7324 61.4483 39.2143V42.8131C61.4483 42.8924 61.3842 42.9595 61.3019 42.9595H60.0392C59.9599 42.9595 59.8928 42.8955 59.8928 42.8131V35.6459C59.8928 35.5666 59.9508 35.4995 60.0301 35.4995H61.2622C61.3446 35.4995 61.3995 35.5635 61.3995 35.6459V36.2315C61.5825 35.9814 61.9119 35.7648 62.2108 35.6306C62.5127 35.4964 62.8482 35.3927 63.4521 35.4324C63.7662 35.4507 64.1749 35.5391 64.2573 35.5696C64.2573 35.5696 64.2573 35.5696 64.2603 35.5696C64.3274 35.5971 64.3579 35.6764 64.3274 35.7404H64.3335ZM70.412 42.7674C69.8752 42.9809 69.1279 43.1273 68.399 43.1273C67.1669 43.1273 66.2214 42.7735 65.5931 42.072C64.9648 41.3736 64.6476 40.419 64.6476 39.2417C64.6476 38.6958 64.7269 38.1803 64.8794 37.7107C65.035 37.2379 65.2668 36.8231 65.5718 36.4755C65.8768 36.1278 66.261 35.8472 66.7155 35.6459C67.1699 35.4446 67.7006 35.3409 68.2984 35.3409C68.701 35.3409 69.0578 35.3653 69.3658 35.411C69.6952 35.4598 70.1314 35.5788 70.3144 35.652C70.3479 35.6642 70.4394 35.7099 70.4028 35.8197C70.2686 36.1979 70.1771 36.445 70.0521 36.7896C70.0002 36.936 69.8874 36.8872 69.8874 36.8872C69.4177 36.7408 68.9693 36.6706 68.3838 36.6706C67.6823 36.6706 67.1516 36.9085 66.807 37.366C66.4593 37.8296 66.2641 38.4335 66.261 39.2387C66.258 40.1231 66.4776 40.7758 66.871 41.1814C67.2614 41.5871 67.8104 41.7914 68.4966 41.7914C68.7742 41.7914 69.0364 41.7731 69.2743 41.7365C69.5092 41.6999 69.7288 41.6267 69.9362 41.5474C69.9362 41.5474 70.0704 41.4956 70.1192 41.6328L70.4699 42.5966C70.5156 42.7155 70.412 42.7643 70.412 42.7643V42.7674ZM77.5426 39.5284C77.5304 39.6534 77.4023 39.6534 77.4023 39.6534H72.5835C72.6109 40.3824 72.7878 40.8978 73.1416 41.2516C73.4893 41.5962 74.0413 41.8189 74.7886 41.8189C75.9323 41.8219 76.4203 41.5901 76.7649 41.462C76.7649 41.462 76.8991 41.4132 76.9448 41.5474L77.259 42.4289C77.323 42.5783 77.2712 42.6302 77.2193 42.6576C76.9204 42.8253 76.1885 43.1364 74.7977 43.1395C74.1237 43.1395 73.535 43.0449 73.0501 42.8558C72.5621 42.6667 72.1565 42.3984 71.8393 42.0537C71.5221 41.7121 71.2873 41.3004 71.1409 40.8307C70.9975 40.3641 70.9243 39.8486 70.9243 39.2936C70.9243 38.7385 70.9945 38.2322 71.1348 37.7595C71.2751 37.2806 71.4947 36.8628 71.7875 36.509C72.0802 36.1552 72.4523 35.8716 72.8946 35.6642C73.3368 35.4568 73.8827 35.3561 74.4836 35.3561C74.9563 35.3561 75.426 35.4507 75.8621 35.6367C76.1641 35.7648 76.466 35.9997 76.7771 36.3321C76.9723 36.5425 77.2712 37.0031 77.3932 37.4575H77.3993C77.7073 38.5402 77.5487 39.4766 77.5426 39.5284V39.5284Z" fill="black"/>
<path fill-rule="evenodd" clip-rule="evenodd" d="M35.8537 36.631C35.2223 36.631 34.774 36.878 34.4782 37.3294C34.283 37.6252 34.1549 38.0065 34.0878 38.464H37.5189C37.4854 38.0217 37.4 37.6283 37.2017 37.3294C36.9028 36.878 36.485 36.631 35.8537 36.631V36.631Z" fill="black"/>
<path fill-rule="evenodd" clip-rule="evenodd" d="M74.3738 36.631C73.7425 36.631 73.2941 36.878 72.9983 37.3294C72.8001 37.6252 72.675 38.0065 72.6079 38.464H76.039C76.0055 38.0217 75.9201 37.6283 75.7219 37.3294C75.423 36.878 75.0051 36.631 74.3738 36.631V36.631Z" fill="black"/>
<path fill-rule="evenodd" clip-rule="evenodd" d="M26.3959 39.5284C25.9628 39.4613 25.5267 39.4247 25.0906 39.4186C24.1085 39.4064 23.6907 39.7663 23.6937 39.7663C23.404 39.9707 23.2637 40.2757 23.2637 40.6965C23.2637 40.9649 23.3125 41.1754 23.407 41.3218C23.4711 41.4194 23.4955 41.456 23.6846 41.6085C23.6846 41.6085 24.1146 41.9501 25.0936 41.8921C25.7829 41.8494 26.3929 41.7183 26.3929 41.7183V39.5315L26.3959 39.5284Z" fill="black"/>
</svg>
