<svg width="110" height="80" viewBox="0 0 110 80" fill="none" xmlns="http://www.w3.org/2000/svg">
<g clip-path="url(#clip0_4_201)">
<path d="M8.31237 32.9336V38.4471C8.2622 39.0542 8.38672 39.663 8.67125 40.2016C8.82356 40.3884 9.01701 40.5374 9.23647 40.637C9.45593 40.7366 9.69546 40.7841 9.93632 40.7758C10.1121 40.7908 10.2016 40.8787 10.2016 41.0374C10.2016 41.1513 10.1251 41.2075 9.97334 41.2075C9.93998 41.2075 9.87813 41.2055 9.79064 41.1998L9.24132 41.1794L8.32742 41.12C8.25418 41.1159 8.1553 41.1123 8.03404 41.1123C7.75165 41.1123 7.49572 41.12 7.27192 41.1347L5.65531 41.2303C5.48278 41.2506 5.36518 41.26 5.30374 41.26C5.15237 41.26 5.0775 41.1961 5.08279 41.0659C5.07881 41.0274 5.0833 40.9885 5.09595 40.952C5.10861 40.9154 5.12911 40.8821 5.15603 40.8543C5.24502 40.8121 5.34238 40.7906 5.44087 40.7912C5.60875 40.7887 5.77417 40.7505 5.92623 40.6793C6.07829 40.6081 6.21353 40.5055 6.32303 40.3782C6.54423 40.0821 6.65401 39.7174 6.63308 39.3484L6.62738 39.0041V32.5018C6.62738 32.1169 6.41986 31.9244 6.00483 31.9244C5.33117 31.8867 4.65586 31.9587 4.00531 32.1376C3.80119 32.2049 3.62164 32.3312 3.48937 32.5006C3.33576 32.8206 3.21917 33.1572 3.14187 33.5036L3.08206 33.7095C3.02957 33.9093 2.94575 34.0102 2.83344 34.0102C2.67068 34.0102 2.59581 33.9353 2.60721 33.7828C2.61785 33.5913 2.64232 33.401 2.68045 33.2131L2.75328 32.5759L2.84158 31.9248L2.89366 31.4773C2.89273 31.4378 2.90018 31.3985 2.91553 31.3621C2.93087 31.3257 2.95374 31.293 2.98265 31.2661C3.01157 31.2392 3.04586 31.2187 3.08326 31.206C3.12066 31.1933 3.16033 31.1887 3.19965 31.1924C3.24889 31.1924 3.3323 31.1977 3.44827 31.2071C3.63951 31.2221 3.9101 31.2294 4.26207 31.2294L5.75499 31.2445L7.53397 31.2669C8.68198 31.2669 9.89725 31.235 11.1798 31.1713C11.4341 31.1619 11.5985 31.1566 11.6717 31.1566C11.9407 31.1566 12.0827 31.2705 12.0957 31.4931L12.1332 32.0201C12.1368 32.1043 12.1612 32.3024 12.2064 32.6129C12.2362 32.8197 12.2536 33.0282 12.2585 33.2371C12.2585 33.3999 12.1905 33.4784 12.0579 33.4784C11.9484 33.4784 11.8695 33.3848 11.8247 33.2001C11.7626 32.8078 11.5519 32.4545 11.2364 32.2133C10.8552 31.9874 10.4147 31.8819 9.97253 31.9106C9.50279 31.8694 9.02968 31.9286 8.58459 32.0844C8.40189 32.1954 8.31237 32.4795 8.31237 32.9336Z" fill="black"/>
<path d="M15.7227 38.903L15.7801 39.6355C15.8158 39.9645 15.9675 40.2701 16.2082 40.4973C16.4565 40.7058 16.7742 40.8131 17.0981 40.798C17.3373 40.798 17.4561 40.8729 17.4561 41.0226C17.4561 41.1642 17.2974 41.2374 16.9801 41.2374C16.8433 41.2374 16.6488 41.2244 16.3949 41.1968C15.8828 41.1332 15.3676 41.097 14.8516 41.0881C14.4636 41.0806 14.0757 41.107 13.6923 41.167C13.519 41.2045 13.3429 41.2275 13.1658 41.2358C13.1185 41.239 13.0717 41.2248 13.0342 41.1959C12.9967 41.1669 12.9712 41.1253 12.9623 41.0788L12.9468 41.0193L13.1584 40.8472C13.4357 40.772 13.6814 40.6095 13.8591 40.3838C13.994 40.1003 14.0531 39.7867 14.0308 39.4735L14.0382 38.8225V32.9973C14.0685 32.661 13.9858 32.3243 13.8034 32.0402C13.5732 31.814 13.269 31.6786 12.9468 31.659C12.7827 31.6417 12.6215 31.6034 12.4671 31.5451C12.4327 31.5272 12.4042 31.4997 12.3852 31.4658C12.3663 31.432 12.3577 31.3933 12.3605 31.3546C12.3605 31.2163 12.4203 31.1512 12.5359 31.1544C12.669 31.1658 12.8014 31.1852 12.9322 31.2126C13.2246 31.2618 13.5212 31.2817 13.8176 31.272C14.0907 31.272 14.4308 31.2574 14.8349 31.2236L15.3708 31.1829C15.8721 31.1455 16.2586 31.1263 16.526 31.1263C16.6887 31.1263 16.7701 31.1862 16.7701 31.3062C16.7774 31.3686 16.7642 31.4317 16.7327 31.486C16.6805 31.5276 16.6159 31.5506 16.5491 31.5512C16.2957 31.5641 16.0555 31.6683 15.8729 31.8445C15.7477 32.1034 15.6961 32.3917 15.7235 32.6779L15.7227 38.903Z" fill="black"/>
<path d="M23.0881 30.9864C24.0803 31.0286 25.054 31.27 25.951 31.6964C26.1197 31.7803 26.2997 31.8394 26.4853 31.8718C26.5535 31.8722 26.6192 31.8459 26.6684 31.7985L26.7498 31.7241C26.7969 31.6775 26.8594 31.6497 26.9255 31.646C27.0708 31.6403 27.144 31.7273 27.144 31.9076L27.1367 32.4215L27.1082 33.4249L27.1294 33.9539C27.1404 34.0849 27.1534 34.2269 27.1742 34.3783C27.1794 34.4365 27.1815 34.4812 27.1815 34.5089C27.1815 34.666 27.105 34.7408 26.9532 34.7299C26.8523 34.7258 26.7835 34.6232 26.7498 34.4235C26.6169 33.7721 26.2936 33.1749 25.8208 32.7076C25.4866 32.3302 25.0751 32.0292 24.6144 31.8247C24.1536 31.6203 23.6543 31.5173 23.1503 31.5227C22.687 31.5094 22.2275 31.6094 21.8116 31.814C21.3958 32.0185 21.0361 32.3215 20.7638 32.6966C20.1264 33.6098 19.8114 34.7094 19.8686 35.8216C19.8269 37.06 20.1478 38.2836 20.7919 39.3421C21.4088 40.2956 22.1675 40.7717 23.0681 40.7703C23.4154 40.7568 23.7592 40.6963 24.0902 40.5905C24.4214 40.5071 24.7387 40.3763 25.0322 40.2019C25.229 40.0712 25.3723 39.8742 25.4363 39.6469C25.5267 39.2771 25.5651 38.8965 25.5502 38.5161C25.5945 38.0865 25.483 37.6553 25.2361 37.3011C24.9043 37.0307 24.4834 36.8942 24.0561 36.9182C23.9047 36.9088 23.8286 36.8368 23.8286 36.7029C23.8286 36.569 23.9185 36.4995 24.0939 36.4995C24.148 36.4995 24.2339 36.5052 24.3498 36.5145C24.8304 36.5552 25.3724 36.5796 25.9795 36.5796C26.439 36.5864 26.8986 36.5697 27.3564 36.5296C27.539 36.5025 27.7232 36.4876 27.9078 36.4848C28.0836 36.4848 28.1715 36.5499 28.1715 36.6793C28.1715 36.799 28.0836 36.8754 27.9078 36.9088C27.7798 36.9295 27.659 36.9819 27.5565 37.0613C27.454 37.1407 27.3731 37.2446 27.321 37.3633C27.1914 37.7616 27.137 38.1805 27.1607 38.5987C27.1598 38.7597 27.1672 38.9206 27.1831 39.0809C27.2035 39.325 27.2132 39.4939 27.2132 39.5911C27.2233 39.7094 27.1908 39.8274 27.1217 39.924C27.0161 40.021 26.8893 40.092 26.7514 40.1311C26.637 40.1718 26.2505 40.3345 25.5876 40.623C24.6309 41.0752 23.5932 41.3312 22.5359 41.3758C21.9325 41.396 21.3318 41.2869 20.774 41.0558C20.2163 40.8247 19.7145 40.4769 19.3022 40.0359C18.4455 39.091 17.9949 37.847 18.0478 36.5727C18.0043 35.1101 18.5227 33.6863 19.4963 32.594C19.9408 32.0794 20.4928 31.6687 21.1135 31.3909C21.7341 31.1131 22.4082 30.975 23.0881 30.9864Z" fill="black"/>
<path d="M32.02 32.8533V34.4402C31.9965 34.7319 32.0306 35.0255 32.1205 35.304C32.186 35.4261 32.3447 35.4867 32.599 35.4867L32.8199 35.4794L33.141 35.4737H33.7632C34.0087 35.4678 34.2468 35.3884 34.4468 35.2458C34.6467 35.1032 34.7994 34.9039 34.885 34.6737L35.053 34.3148C35.0729 34.2736 35.1039 34.2387 35.1426 34.2143C35.1813 34.1898 35.2261 34.1767 35.2719 34.1765C35.3802 34.1728 35.4323 34.2388 35.4323 34.3767C35.4323 34.4141 35.4249 34.5228 35.4123 34.6986C35.4009 34.8255 35.3969 34.9341 35.3969 35.0216C35.3969 35.1787 35.4176 35.5433 35.4628 36.1223C35.4909 36.4979 35.5055 36.8267 35.5055 37.1058L35.5149 37.4793C35.5185 37.5267 35.5103 37.5743 35.4909 37.6177C35.4771 37.6349 35.4593 37.6487 35.4392 37.6577C35.419 37.6668 35.397 37.6709 35.3749 37.6697C35.2528 37.6811 35.1763 37.5884 35.1466 37.3914C35.112 37.0365 34.9579 36.7038 34.7096 36.4478C34.5792 36.329 34.4175 36.2498 34.2437 36.2196C33.9022 36.177 33.5579 36.1603 33.2138 36.1695H32.7166C32.5491 36.1526 32.3806 36.1899 32.236 36.2761C32.1308 36.3936 32.0701 36.5444 32.0648 36.7021C32.0285 37.0866 32.0136 37.4728 32.02 37.859V38.5149C31.9979 39.015 32.0528 39.5155 32.1827 39.9989C32.2187 40.18 32.3238 40.34 32.4757 40.4449C32.6276 40.5499 32.8144 40.5916 32.9965 40.5612C34.9768 40.5612 36.2725 39.9587 36.8837 38.7537C36.917 38.6955 36.9476 38.6626 36.9716 38.6589C36.9966 38.6544 37.0224 38.6564 37.0464 38.6649C37.0704 38.6734 37.0917 38.688 37.1083 38.7074C37.1286 38.7279 37.1446 38.7524 37.1553 38.7793C37.1659 38.8063 37.171 38.8351 37.1701 38.864C37.1672 39.3552 37.0329 39.8367 36.7811 40.2585C36.6014 40.6065 36.3205 40.8919 35.9755 41.0771C35.5738 41.2581 35.1355 41.3425 34.6954 41.3237C34.3476 41.3223 34.0002 41.3025 33.6545 41.2643L32.8053 41.1854C32.4936 41.1555 32.0713 41.1408 31.5382 41.141C31.1834 41.141 30.639 41.163 29.9106 41.2061C29.7112 41.2208 29.5672 41.2285 29.4793 41.2285C29.4558 41.2319 29.4318 41.2303 29.409 41.2237C29.3861 41.2171 29.365 41.2058 29.3469 41.1904C29.3288 41.175 29.3142 41.1559 29.304 41.1344C29.2939 41.1129 29.2884 41.0895 29.2881 41.0657C29.2848 40.9758 29.3373 40.9087 29.4508 40.8623C29.6638 40.7956 29.8578 40.6792 30.0168 40.5225C30.1452 40.3311 30.2266 40.1121 30.2544 39.8833C30.317 39.5355 30.3443 39.1823 30.3358 38.829V33.0347C30.3786 32.6445 30.2834 32.2517 30.0669 31.9243C29.7512 31.6719 29.3627 31.5279 28.9589 31.5133C28.9314 31.5127 28.9044 31.5065 28.8794 31.4951C28.8544 31.4837 28.832 31.4674 28.8135 31.4472C28.795 31.4269 28.7808 31.4031 28.7717 31.3772C28.7626 31.3513 28.7589 31.3238 28.7607 31.2964C28.7607 31.1821 28.8421 31.1243 29.0016 31.1243C29.0374 31.1243 29.1098 31.13 29.2225 31.1394C29.31 31.1451 29.4292 31.1467 29.5806 31.1467L30.3212 31.1772L33.0962 31.2049C34.6926 31.2049 35.6764 31.1832 36.0475 31.1398C36.0849 31.1361 36.1208 31.1325 36.1484 31.1325C36.2906 31.1325 36.3615 31.2128 36.3612 31.3734C36.3612 31.4877 36.3767 31.6879 36.406 31.9756C36.443 32.3996 36.4642 32.708 36.4642 32.8915C36.4642 33.2614 36.369 33.4518 36.1793 33.4612C36.0862 33.4669 36.0414 33.3582 36.0414 33.1381C36.057 32.93 36.0157 32.7216 35.9218 32.5352C35.828 32.3489 35.6852 32.1915 35.5088 32.0801C34.9746 31.8249 34.3834 31.7127 33.7929 31.7546H32.8977L32.4005 31.8128C32.1502 31.8897 32.0249 32.1383 32.0249 32.5513L32.02 32.8533Z" fill="black"/>
<path d="M40.8513 38.3277C40.8052 38.9661 40.893 39.6072 41.1093 40.2096C41.2139 40.3838 41.3622 40.5276 41.5395 40.6269C41.7168 40.7262 41.9169 40.7774 42.12 40.7756C42.3235 40.796 42.4264 40.8749 42.4264 41.0145C42.4264 41.1541 42.3422 41.222 42.1778 41.222C42.1237 41.222 42.0228 41.2147 41.8771 41.1996C41.4568 41.1683 41.0511 41.1496 40.6617 41.1496C40.3362 41.1496 40.0436 41.1589 39.7893 41.1777L39.1769 41.2334L38.685 41.2741C38.5487 41.2887 38.453 41.2944 38.4001 41.2944C38.2248 41.2944 38.1369 41.2269 38.1369 41.0942C38.1323 41.0477 38.1444 41.001 38.1711 40.9626C38.1978 40.9242 38.2373 40.8966 38.2825 40.8847C38.5498 40.8235 38.7907 40.6789 38.9702 40.4717C39.1154 40.2342 39.1821 39.957 39.1606 39.6794V38.9877L39.17 38.7029V33.4132C39.2085 33.0083 39.1319 32.6008 38.9491 32.2376C38.8059 32.0627 38.6276 31.9198 38.4257 31.8181C38.2239 31.7164 38.0029 31.6582 37.7772 31.6472C37.5778 31.6171 37.4765 31.5312 37.4765 31.3929C37.4724 31.3649 37.4749 31.3363 37.4838 31.3094C37.4927 31.2825 37.5078 31.258 37.5277 31.2379C37.5477 31.2178 37.5721 31.2027 37.5989 31.1936C37.6257 31.1846 37.6543 31.1819 37.6824 31.1858C37.7706 31.1877 37.8586 31.1945 37.9461 31.2061C38.357 31.2486 38.7699 31.2687 39.183 31.2663C39.6765 31.2663 40.2746 31.2392 40.9775 31.185C41.8035 31.1212 42.3723 31.0893 42.684 31.0893C43.5188 31.0582 44.337 31.3276 44.9899 31.8486C45.2798 32.0741 45.5135 32.3637 45.6724 32.6948C45.8314 33.0259 45.9113 33.3894 45.9059 33.7566C45.9106 34.2279 45.7684 34.689 45.499 35.0758C45.2218 35.4776 44.8341 35.7905 44.3828 35.9766C44.286 36.0173 44.2392 36.0649 44.2449 36.1243C44.2548 36.188 44.2799 36.2483 44.3181 36.3001C44.3608 36.3669 44.4264 36.4828 44.5138 36.6435L45.1649 37.7987L45.9181 39.1387C46.0983 39.4867 46.3317 39.8045 46.6098 40.0806C46.8065 40.255 47.0615 40.3489 47.3243 40.3439C47.4294 40.3444 47.5343 40.3351 47.6376 40.3162C47.6908 40.3021 47.7454 40.2946 47.8004 40.2939C47.8903 40.2939 47.933 40.3496 47.933 40.4623C47.933 40.6023 47.7337 40.7651 47.3357 40.9441C47.0036 41.1082 46.6406 41.2005 46.2704 41.2151C45.9988 41.203 45.7333 41.1305 45.4934 41.0027C45.2534 40.8749 45.045 40.6952 44.8833 40.4766C44.2318 39.6074 43.6778 38.6693 43.2313 37.6791C43.0769 37.3005 42.8564 36.9524 42.5802 36.6509C42.3352 36.4842 42.04 36.4075 41.7449 36.434H41.2928L40.9624 36.4918C40.89 36.5325 40.8521 36.6488 40.8521 36.8433L40.8513 38.3277ZM40.8513 32.6107V35.1453C40.8251 35.3508 40.868 35.5591 40.9734 35.7374C41.1447 35.8453 41.3485 35.8897 41.5492 35.8627C42.089 35.8751 42.6291 35.8596 43.1674 35.8163C43.3877 35.7792 43.5913 35.6755 43.7509 35.5193C43.9322 35.3498 44.0742 35.1427 44.1669 34.9125C44.2595 34.6822 44.3006 34.4345 44.2872 34.1867C44.2979 33.8482 44.2389 33.5111 44.1139 33.1963C43.9888 32.8816 43.8004 32.5959 43.5603 32.357C43.3202 32.1181 43.0336 31.9312 42.7182 31.8077C42.4028 31.6843 42.0654 31.627 41.727 31.6395C41.6044 31.6248 41.4801 31.6358 41.362 31.6719C41.244 31.708 41.1348 31.7683 41.0414 31.849C40.891 32.0728 40.8237 32.3422 40.8513 32.6103V32.6107Z" fill="black"/>
<path d="M53.7508 30.9864C54.7432 31.0285 55.717 31.27 56.6142 31.6964C56.783 31.7805 56.963 31.8395 57.1488 31.8718C57.217 31.8718 57.2825 31.8455 57.3319 31.7986L57.4133 31.7241C57.4601 31.6772 57.5225 31.6494 57.5887 31.646C57.7343 31.6403 57.8068 31.7274 57.8068 31.9076L57.7995 32.4215L57.7714 33.425L57.7942 33.9539C57.8035 34.085 57.8182 34.227 57.8349 34.3783C57.8385 34.4365 57.8422 34.4813 57.8422 34.5089C57.8422 34.666 57.7661 34.7409 57.6159 34.7299C57.5131 34.7258 57.444 34.6237 57.4084 34.4235C57.2768 33.772 56.954 33.1746 56.4811 32.7076C56.147 32.3301 55.7356 32.0289 55.2748 31.8245C54.814 31.6201 54.3147 31.5171 53.8106 31.5227C53.3471 31.5097 52.8874 31.6098 52.4712 31.8143C52.0551 32.0189 51.695 32.3217 51.4221 32.6966C50.7858 33.6104 50.4709 34.7095 50.5269 35.8216C50.4852 37.06 50.806 38.2836 51.4502 39.3421C52.0667 40.2956 52.8251 40.7717 53.7251 40.7703C54.0726 40.757 54.4166 40.6965 54.7477 40.5905C55.0793 40.5072 55.3972 40.3763 55.6913 40.2019C55.888 40.0712 56.0312 39.8743 56.095 39.6469C56.1854 39.2771 56.2237 38.8965 56.2089 38.5161C56.2531 38.0866 56.1417 37.6555 55.8952 37.3011C55.5633 37.0309 55.1425 36.8943 54.7152 36.9182C54.5638 36.9089 54.4893 36.8368 54.4893 36.703C54.4893 36.5691 54.5748 36.4995 54.7526 36.4995C54.8071 36.4995 54.8909 36.5052 55.0085 36.5146C55.487 36.5553 56.0311 36.5797 56.6361 36.5797C57.0963 36.5865 57.5566 36.5698 58.0151 36.5296C58.197 36.5026 58.3805 36.4877 58.5644 36.4849C58.7422 36.4849 58.8301 36.55 58.8301 36.6794C58.8301 36.799 58.7418 36.8755 58.5665 36.9089C58.4384 36.9294 58.3175 36.9818 58.2149 37.0612C58.1123 37.1406 58.0313 37.2445 57.9793 37.3634C57.8487 37.7615 57.7935 38.1804 57.8165 38.5987C57.8158 38.7597 57.8233 38.9207 57.8389 39.0809C57.8577 39.3237 57.867 39.4938 57.867 39.5912C57.8765 39.7092 57.8447 39.8268 57.7771 39.924C57.6712 40.0214 57.5437 40.0924 57.4052 40.1311C57.2945 40.1718 56.9059 40.3346 56.2427 40.623C55.2852 41.0754 54.2468 41.3313 53.1889 41.3758C52.5858 41.3961 51.9855 41.287 51.4281 41.0559C50.8708 40.8248 50.3694 40.477 49.9577 40.0359C49.0992 39.0919 48.6472 37.8477 48.6995 36.5728C48.6566 35.1099 49.1755 33.6862 50.1497 32.5941C50.5952 32.0782 51.1487 31.6668 51.7711 31.389C52.3935 31.1111 53.0693 30.9737 53.7508 30.9864Z" fill="black"/>
<path d="M62.6894 38.8901C62.6894 39.8019 62.8001 40.3142 63.0182 40.4245C63.2477 40.5052 63.4914 40.5377 63.734 40.5201C65.3887 40.5201 66.5611 40.0341 67.2512 39.0622C67.464 38.7651 67.5967 38.6146 67.6512 38.6146C67.7432 38.6146 67.7859 38.7151 67.7859 38.9153C67.7907 39.5244 67.5749 40.1147 67.1784 40.5771C67.0017 40.7898 66.7782 40.9586 66.5253 41.0705C66.2724 41.1823 65.9971 41.234 65.7209 41.2216C65.5955 41.2216 65.3616 41.2106 65.0255 41.1858L64.147 41.1337L63.349 41.0967C63.0797 41.0837 62.7749 41.0759 62.4331 41.0759C61.8211 41.0788 61.2098 41.1163 60.602 41.1882C60.4027 41.2106 60.268 41.2216 60.2004 41.2216C60.0584 41.2216 59.9876 41.1585 59.9876 41.0296C59.9876 40.9376 60.0507 40.8757 60.176 40.8403C60.3151 40.8097 60.4455 40.7483 60.5578 40.6606C60.67 40.5729 60.7612 40.4613 60.8246 40.3338C60.9686 39.9401 61.0297 39.5209 61.0041 39.1025V32.9973C61.0041 32.2177 60.6799 31.7766 60.0316 31.6741L59.5909 31.6008C59.4062 31.5728 59.3126 31.4979 59.3126 31.3783C59.3081 31.3481 59.3107 31.3173 59.3201 31.2883C59.3296 31.2593 59.3456 31.2329 59.367 31.2112C59.3884 31.1895 59.4145 31.173 59.4433 31.1631C59.4721 31.1532 59.5029 31.1501 59.5331 31.1541C59.6046 31.1562 59.6759 31.1637 59.7463 31.1764C59.8135 31.1801 59.9091 31.1895 60.0311 31.2041L60.3457 31.2265C60.6444 31.2566 60.8669 31.2712 61.0146 31.2712C61.3896 31.2607 61.7637 31.2314 62.1356 31.1834C62.5232 31.1435 62.9126 31.1235 63.3022 31.1235C63.5956 31.1235 63.7429 31.1943 63.7429 31.3331C63.7429 31.4527 63.6363 31.5186 63.4276 31.5276C62.9336 31.561 62.6867 31.9 62.687 32.5448L62.6894 38.8901Z" fill="black"/>
<path d="M73.7685 30.9714C75.1261 30.9112 76.4526 31.3894 77.4595 32.3019C77.9276 32.7513 78.2949 33.2949 78.5372 33.8968C78.7796 34.4987 78.8914 35.1452 78.8654 35.7935C78.9033 37.2583 78.385 38.6832 77.4148 39.7812C76.4735 40.8465 75.1753 41.3784 73.5203 41.3771C72.8274 41.4108 72.1348 41.3054 71.4832 41.0672C70.8317 40.8289 70.2345 40.4627 69.7267 39.9899C69.247 39.5026 68.8732 38.9213 68.6287 38.2827C68.3843 37.644 68.2745 36.9617 68.3063 36.2786C68.3097 35.6017 68.4311 34.9305 68.6651 34.2953C68.8877 33.6405 69.2522 33.0429 69.7327 32.5453C70.2131 32.0478 70.7976 31.6626 71.4443 31.4173C72.1827 31.1191 72.9722 30.9676 73.7685 30.9714ZM73.2395 31.5207C72.7967 31.5018 72.3559 31.5911 71.9554 31.781C71.5548 31.9709 71.2066 32.2555 70.9409 32.6104C70.3878 33.3393 70.1119 34.3528 70.1133 35.6511C70.0536 36.976 70.4181 38.2854 71.1538 39.3889C71.4472 39.8358 71.8483 40.2017 72.3201 40.453C72.7919 40.7044 73.3194 40.8331 73.8539 40.8273C74.3209 40.84 74.7838 40.7381 75.2023 40.5306C75.6207 40.3232 75.982 40.0164 76.2547 39.6371C76.8959 38.7044 77.2121 37.5864 77.1547 36.456C77.1541 35.6887 77.0129 34.9279 76.7381 34.2115C76.5059 33.5534 76.1248 32.958 75.6244 32.4716C74.9867 31.8526 74.1302 31.5108 73.2416 31.5207H73.2395Z" fill="black"/>
<path d="M81.1947 33.2817C81.1947 32.2989 80.7941 31.7601 79.9927 31.6651L79.6562 31.6224C79.5496 31.613 79.4955 31.541 79.4955 31.4153C79.4955 31.2696 79.5643 31.1964 79.701 31.1964L79.8837 31.2037L80.4314 31.2342C80.8859 31.2545 81.1756 31.2639 81.3038 31.2639C81.6564 31.2639 82.2981 31.2221 83.2288 31.1386C83.805 31.0865 84.2908 31.0572 84.6867 31.0572C85.57 31.0139 86.4446 31.2485 87.1875 31.7282C87.4821 31.9226 87.7228 32.1884 87.8871 32.5007C88.0515 32.8131 88.1342 33.162 88.1275 33.5149C88.1493 33.8994 88.0473 34.2808 87.8364 34.603C87.6254 34.9253 87.3168 35.1714 86.9556 35.3053C86.7766 35.3838 86.6826 35.4509 86.6773 35.5034C86.6732 35.5913 86.7672 35.6511 86.9621 35.6788C87.526 35.7606 88.0405 36.0459 88.4087 36.4808C88.7697 36.9304 88.9574 37.4947 88.9376 38.071C88.9574 38.5014 88.8805 38.9308 88.7127 39.3276C88.5448 39.7245 88.2902 40.0787 87.9676 40.3643C87.2254 40.9579 86.2909 41.2578 85.3419 41.207L83.8563 41.1634L82.7141 41.1414C82.0782 41.137 81.4426 41.1662 80.8098 41.2289C80.6548 41.2482 80.4988 41.2582 80.3427 41.2586C80.1954 41.2586 80.1221 41.1935 80.1221 41.0645C80.1221 40.9559 80.188 40.8871 80.3186 40.8611C80.9013 40.764 81.1924 40.2601 81.1919 39.3494L81.1947 33.2817ZM82.8785 32.6462V34.749C82.8663 34.8584 82.8782 34.969 82.9134 35.0733C82.9485 35.1775 83.0061 35.2728 83.0819 35.3525C83.2958 35.4871 83.5481 35.5474 83.7997 35.5242L84.8104 35.5465L85.2649 35.5242C86.1005 35.4214 86.5178 34.9211 86.517 34.0235C86.5305 33.6978 86.4756 33.3729 86.3559 33.0697C86.2361 32.7665 86.0541 32.4918 85.8216 32.2633C85.576 32.0357 85.2877 31.8593 84.9734 31.7441C84.659 31.6289 84.325 31.5773 83.9905 31.5923C83.6782 31.5566 83.3634 31.6335 83.1027 31.8092C82.9228 32.0494 82.8424 32.3498 82.8781 32.6478L82.8785 32.6462ZM82.8785 37.5225V38.735L82.9008 39.0117L82.9517 39.6343C83.0111 40.3371 83.5684 40.6879 84.6237 40.6865C85.6648 40.6865 86.3763 40.4355 86.7583 39.9334C87.0762 39.4969 87.2411 38.9676 87.227 38.4278C87.227 37.282 86.7164 36.5767 85.695 36.3119C85.037 36.1542 84.362 36.0783 83.6853 36.0861C83.3327 36.0861 83.1097 36.1702 83.0164 36.3384C82.8931 36.7207 82.8461 37.1236 82.8781 37.5241L82.8785 37.5225Z" fill="black"/>
<path d="M95.1138 31.9903L98.4443 39.6355C98.5719 39.9639 98.7724 40.259 99.0306 40.4986C99.2821 40.7004 99.5828 40.8315 99.9018 40.8782C99.9897 40.8933 100.033 40.9624 100.033 41.0874C100.033 41.22 99.9767 41.2855 99.8648 41.2798C99.7712 41.2716 99.6782 41.2573 99.5865 41.2371C98.9857 41.1368 98.3765 41.0948 97.7676 41.1118C97.1926 41.0909 96.617 41.1298 96.0501 41.2277C95.9887 41.2468 95.9251 41.2575 95.8609 41.2595C95.8328 41.263 95.8043 41.26 95.7776 41.2506C95.7509 41.2413 95.7268 41.2259 95.707 41.2056C95.6873 41.1853 95.6726 41.1607 95.664 41.1338C95.6553 41.1069 95.6531 41.0783 95.6574 41.0503C95.6574 40.9816 95.7103 40.9283 95.8202 40.8937C96.0453 40.8303 96.2473 40.7031 96.4017 40.5275C96.5456 40.3774 96.6277 40.1787 96.6316 39.9708C96.5153 39.3408 96.3016 38.7328 95.998 38.1686C95.865 37.8867 95.7213 37.7243 95.5626 37.6828C95.0043 37.6196 94.442 37.5983 93.8805 37.6189H92.886L92.2301 37.7369C92.0482 37.8183 91.8448 38.1406 91.6149 38.7009L91.3886 39.2636C91.322 39.4179 91.287 39.5839 91.2857 39.7519C91.2857 40.365 91.7156 40.7207 92.5756 40.8192C92.7603 40.8436 92.8502 40.9148 92.8466 41.0345C92.8372 41.1651 92.7489 41.2285 92.5829 41.2285C92.4567 41.2241 92.3312 41.2095 92.2073 41.185C91.9226 41.1252 91.6328 41.0926 91.3418 41.0878C91.1123 41.0878 90.7404 41.1138 90.2261 41.1626C89.8448 41.2033 89.6072 41.2208 89.5161 41.2208C89.3798 41.2208 89.3126 41.161 89.3126 41.0418C89.3126 40.9425 89.3814 40.868 89.5161 40.8192C89.7717 40.7413 89.9945 40.5811 90.1496 40.3635C90.4241 39.9169 90.6604 39.448 90.856 38.9617L92.8555 34.3564C93.0164 33.9902 93.1287 33.7391 93.1924 33.6032L93.8724 32.2067L94.2239 31.5191V31.5414C94.381 31.1699 94.4856 30.9848 94.5401 30.9848C94.6186 30.9848 94.7513 31.1882 94.9433 31.5992L95.1138 31.9903ZM95.3869 36.5667L94.4318 34.3316C94.2015 33.7969 94.0396 33.53 93.9436 33.53C93.8854 33.53 93.7808 33.7017 93.6225 34.0476L93.4842 34.3539L92.6297 36.305L92.5483 36.4861C92.5167 36.5448 92.4986 36.6099 92.4954 36.6765C92.4954 36.8393 92.6716 36.9235 93.0207 36.9235H95.183C95.3677 36.9235 95.4613 36.8727 95.4613 36.7697C95.4556 36.7273 95.4431 36.6861 95.4243 36.6476L95.3869 36.5667Z" fill="black"/>
<path d="M103.307 38.8901C103.307 39.8019 103.415 40.3142 103.636 40.4245C103.864 40.5056 104.108 40.5381 104.35 40.5201C106.004 40.5201 107.177 40.0341 107.867 39.0622C108.08 38.7652 108.215 38.6146 108.269 38.6146C108.359 38.6146 108.402 38.7151 108.402 38.9153C108.407 39.5244 108.191 40.1147 107.794 40.5771C107.618 40.7895 107.395 40.9583 107.142 41.0701C106.89 41.1819 106.615 41.2338 106.339 41.2216C106.21 41.2216 105.98 41.2106 105.642 41.1858L104.763 41.1337L103.965 41.0967C103.698 41.0837 103.391 41.0759 103.05 41.0759C102.438 41.0787 101.826 41.1162 101.219 41.1882C101.018 41.2106 100.884 41.2216 100.815 41.2216C100.675 41.2216 100.604 41.1585 100.604 41.0296C100.604 40.9376 100.668 40.8757 100.794 40.8403C100.933 40.8091 101.063 40.7474 101.175 40.6598C101.287 40.5722 101.379 40.4609 101.443 40.3338C101.585 39.9397 101.646 39.5207 101.62 39.1025V32.9973C101.62 32.2177 101.297 31.7766 100.646 31.6741L100.208 31.6008C100.022 31.5728 99.9291 31.4979 99.9291 31.3783C99.9246 31.3479 99.9273 31.317 99.9369 31.2878C99.9465 31.2587 99.9627 31.2322 99.9843 31.2105C100.006 31.1887 100.032 31.1723 100.061 31.1625C100.09 31.1527 100.121 31.1498 100.152 31.1541C100.222 31.1563 100.293 31.1638 100.362 31.1764C100.432 31.1801 100.528 31.1895 100.647 31.2041L100.963 31.2265C101.261 31.2566 101.484 31.2715 101.63 31.2712C101.864 31.2712 102.24 31.2415 102.754 31.1834C103.14 31.1435 103.529 31.1235 103.918 31.1235C104.211 31.1235 104.359 31.1943 104.359 31.3331C104.359 31.4527 104.252 31.5186 104.043 31.5276C103.549 31.561 103.304 31.8995 103.304 32.5448L103.307 38.8901Z" fill="black"/>
</g>
<defs>
<clipPath id="clip0_4_201">
<rect width="105.794" height="10.4041" fill="white" transform="translate(2.60742 30.9714)"/>
</clipPath>
</defs>
</svg>
