<svg width="61" height="80" viewBox="0 0 61 80" fill="none" xmlns="http://www.w3.org/2000/svg">
<path fill-rule="evenodd" clip-rule="evenodd" d="M18.3741 26.1958C18.3741 27.0931 17.6469 27.8203 16.7503 27.8203C15.8536 27.8203 15.1257 27.0931 15.1257 26.1958C15.1257 25.2991 15.8536 24.572 16.7503 24.572C17.6469 24.572 18.3741 25.2991 18.3741 26.1958Z" fill="black"/>
<path fill-rule="evenodd" clip-rule="evenodd" d="M23.8499 26.1958C23.8499 27.0931 23.1227 27.8203 22.2261 27.8203C21.3287 27.8203 20.6016 27.0931 20.6016 26.1958C20.6016 25.2991 21.3287 24.572 22.2261 24.572C23.1227 24.572 23.8499 25.2991 23.8499 26.1958Z" fill="black"/>
<path fill-rule="evenodd" clip-rule="evenodd" d="M29.3257 26.1958C29.3257 27.0931 28.5986 27.8203 27.7012 27.8203C26.8046 27.8203 26.0774 27.0931 26.0774 26.1958C26.0774 25.2991 26.8046 24.572 27.7012 24.572C28.5986 24.572 29.3257 25.2991 29.3257 26.1958Z" fill="black"/>
<path fill-rule="evenodd" clip-rule="evenodd" d="M34.8008 26.1958C34.8008 27.0931 34.0737 27.8203 33.177 27.8203C32.2797 27.8203 31.5525 27.0931 31.5525 26.1958C31.5525 25.2991 32.2797 24.572 33.177 24.572C34.0737 24.572 34.8008 25.2991 34.8008 26.1958Z" fill="black"/>
<path fill-rule="evenodd" clip-rule="evenodd" d="M40.2764 26.1958C40.2764 27.0931 39.5493 27.8203 38.6519 27.8203C37.7553 27.8203 37.0281 27.0931 37.0281 26.1958C37.0281 25.2991 37.7553 24.572 38.6519 24.572C39.5493 24.572 40.2764 25.2991 40.2764 26.1958Z" fill="black"/>
<path fill-rule="evenodd" clip-rule="evenodd" d="M45.7523 26.1958C45.7523 27.0931 45.0251 27.8203 44.1277 27.8203C43.2311 27.8203 42.5039 27.0931 42.5039 26.1958C42.5039 25.2991 43.2311 24.572 44.1277 24.572C45.0251 24.572 45.7523 25.2991 45.7523 26.1958Z" fill="black"/>
<path fill-rule="evenodd" clip-rule="evenodd" d="M29.3257 36.4682C29.3257 37.3649 28.5986 38.092 27.7012 38.092C26.8046 38.092 26.0774 37.3649 26.0774 36.4682C26.0774 35.5716 26.8046 34.8437 27.7012 34.8437C28.5986 34.8437 29.3257 35.5716 29.3257 36.4682Z" fill="black"/>
<path fill-rule="evenodd" clip-rule="evenodd" d="M34.8008 36.4682C34.8008 37.3649 34.0737 38.092 33.177 38.092C32.2797 38.092 31.5525 37.3649 31.5525 36.4682C31.5525 35.5716 32.2797 34.8437 33.177 34.8437C34.0737 34.8437 34.8008 35.5716 34.8008 36.4682Z" fill="black"/>
<path fill-rule="evenodd" clip-rule="evenodd" d="M29.3257 41.6043C29.3257 42.5009 28.5986 43.2288 27.7012 43.2288C26.8046 43.2288 26.0774 42.5009 26.0774 41.6043C26.0774 40.7076 26.8046 39.9805 27.7012 39.9805C28.5986 39.9805 29.3257 40.7076 29.3257 41.6043Z" fill="black"/>
<path fill-rule="evenodd" clip-rule="evenodd" d="M34.8008 41.6043C34.8008 42.5009 34.0737 43.2288 33.177 43.2288C32.2797 43.2288 31.5525 42.5009 31.5525 41.6043C31.5525 40.7076 32.2797 39.9805 33.177 39.9805C34.0737 39.9805 34.8008 40.7076 34.8008 41.6043Z" fill="black"/>
<path fill-rule="evenodd" clip-rule="evenodd" d="M29.3257 46.7403C29.3257 47.6376 28.5986 48.3648 27.7012 48.3648C26.8046 48.3648 26.0774 47.6376 26.0774 46.7403C26.0774 45.8436 26.8046 45.1165 27.7012 45.1165C28.5986 45.1165 29.3257 45.8436 29.3257 46.7403Z" fill="black"/>
<path fill-rule="evenodd" clip-rule="evenodd" d="M34.8008 46.7403C34.8008 47.6376 34.0737 48.3648 33.177 48.3648C32.2797 48.3648 31.5525 47.6376 31.5525 46.7403C31.5525 45.8436 32.2797 45.1165 33.177 45.1165C34.0737 45.1165 34.8008 45.8436 34.8008 46.7403Z" fill="black"/>
<path fill-rule="evenodd" clip-rule="evenodd" d="M29.3257 51.8767C29.3257 52.7734 28.5986 53.5006 27.7012 53.5006C26.8046 53.5006 26.0774 52.7734 26.0774 51.8767C26.0774 50.9794 26.8046 50.2522 27.7012 50.2522C28.5986 50.2522 29.3257 50.9794 29.3257 51.8767Z" fill="black"/>
<path fill-rule="evenodd" clip-rule="evenodd" d="M34.8008 51.8767C34.8008 52.7734 34.0737 53.5006 33.177 53.5006C32.2797 53.5006 31.5525 52.7734 31.5525 51.8767C31.5525 50.9794 32.2797 50.2522 33.177 50.2522C34.0737 50.2522 34.8008 50.9794 34.8008 51.8767Z" fill="black"/>
<path fill-rule="evenodd" clip-rule="evenodd" d="M29.3257 57.0128C29.3257 57.9094 28.5986 58.6366 27.7012 58.6366C26.8046 58.6366 26.0774 57.9094 26.0774 57.0128C26.0774 56.1162 26.8046 55.3882 27.7012 55.3882C28.5986 55.3882 29.3257 56.1162 29.3257 57.0128Z" fill="black"/>
<path fill-rule="evenodd" clip-rule="evenodd" d="M34.8008 57.0128C34.8008 57.9094 34.0737 58.6366 33.177 58.6366C32.2797 58.6366 31.5525 57.9094 31.5525 57.0128C31.5525 56.1162 32.2797 55.3882 33.177 55.3882C34.0737 55.3882 34.8008 56.1162 34.8008 57.0128Z" fill="black"/>
<path fill-rule="evenodd" clip-rule="evenodd" d="M18.3741 31.3322C18.3741 32.2288 17.6469 32.956 16.7503 32.956C15.8536 32.956 15.1257 32.2288 15.1257 31.3322C15.1257 30.4348 15.8536 29.7076 16.7503 29.7076C17.6469 29.7076 18.3741 30.4348 18.3741 31.3322Z" fill="black"/>
<path fill-rule="evenodd" clip-rule="evenodd" d="M23.8499 31.3322C23.8499 32.2288 23.1227 32.956 22.2261 32.956C21.3287 32.956 20.6016 32.2288 20.6016 31.3322C20.6016 30.4348 21.3287 29.7076 22.2261 29.7076C23.1227 29.7076 23.8499 30.4348 23.8499 31.3322Z" fill="black"/>
<path fill-rule="evenodd" clip-rule="evenodd" d="M29.3257 31.3322C29.3257 32.2288 28.5986 32.956 27.7012 32.956C26.8046 32.956 26.0774 32.2288 26.0774 31.3322C26.0774 30.4348 26.8046 29.7076 27.7012 29.7076C28.5986 29.7076 29.3257 30.4348 29.3257 31.3322Z" fill="black"/>
<path fill-rule="evenodd" clip-rule="evenodd" d="M34.8008 31.3322C34.8008 32.2288 34.0737 32.956 33.177 32.956C32.2797 32.956 31.5525 32.2288 31.5525 31.3322C31.5525 30.4348 32.2797 29.7076 33.177 29.7076C34.0737 29.7076 34.8008 30.4348 34.8008 31.3322Z" fill="black"/>
<path fill-rule="evenodd" clip-rule="evenodd" d="M40.2764 31.3322C40.2764 32.2288 39.5493 32.956 38.6519 32.956C37.7553 32.956 37.0281 32.2288 37.0281 31.3322C37.0281 30.4348 37.7553 29.7076 38.6519 29.7076C39.5493 29.7076 40.2764 30.4348 40.2764 31.3322Z" fill="black"/>
<path fill-rule="evenodd" clip-rule="evenodd" d="M45.7523 31.3322C45.7523 32.2288 45.0251 32.956 44.1277 32.956C43.2311 32.956 42.5039 32.2288 42.5039 31.3322C42.5039 30.4348 43.2311 29.7076 44.1277 29.7076C45.0251 29.7076 45.7523 30.4348 45.7523 31.3322Z" fill="black"/>
<path fill-rule="evenodd" clip-rule="evenodd" d="M30.4391 12.0021C15.855 12.0021 3.98957 23.8675 3.98957 38.4516C3.98957 53.0357 15.855 64.9011 30.4391 64.9011C45.0232 64.9011 56.8886 53.0357 56.8886 38.4516C56.8886 23.8675 45.0232 12.0021 30.4391 12.0021ZM30.4391 66.4483C15.0019 66.4483 2.44238 53.8896 2.44238 38.4516C2.44238 23.0144 15.0019 10.4549 30.4391 10.4549C45.8771 10.4549 58.4358 23.0144 58.4358 38.4516C58.4358 53.8896 45.8771 66.4483 30.4391 66.4483Z" fill="black"/>
</svg>
